<svg width="45" height="45" viewBox="0 0 45 45" fill="none" xmlns="http://www.w3.org/2000/svg">
<g id="Group">
<path id="Vector" d="M5.29771 32.1791C5.29771 33.89 5.97735 35.5308 7.18712 36.7406C8.39689 37.9504 10.0377 38.63 11.7486 38.63C11.7486 40.0557 12.3149 41.4231 13.3231 42.4312C14.3312 43.4394 15.6986 44.0057 17.1243 44.0057C18.55 44.0057 19.9173 43.4394 20.9255 42.4312C21.9336 41.4231 22.5 40.0557 22.5 38.63C22.5 40.0557 23.0664 41.4231 24.0745 42.4312C25.0827 43.4394 26.45 44.0057 27.8757 44.0057C29.3014 44.0057 30.6688 43.4394 31.6769 42.4312C32.6851 41.4231 33.2514 40.0557 33.2514 38.63C34.3951 38.6301 35.5182 38.3262 36.5057 37.7493C37.4932 37.1725 38.3096 36.3435 38.8712 35.3473C39.4329 34.3511 39.7196 33.2235 39.7021 32.08C39.6845 30.9365 39.3632 29.8182 38.7712 28.8398C40.243 28.5554 41.5699 27.7675 42.524 26.6113C43.4781 25.4552 44 24.0029 44 22.5039C44 21.0049 43.4781 19.5527 42.524 18.3965C41.5699 17.2404 40.243 16.4525 38.7712 16.1681C39.3638 15.1896 39.6855 14.0711 39.7033 12.9273C39.7212 11.7835 39.4346 10.6555 38.8728 9.65893C38.3111 8.66239 37.4945 7.83315 36.5067 7.25621C35.5189 6.67927 34.3954 6.37539 33.2514 6.37572C33.2514 4.94999 32.6851 3.58265 31.6769 2.57451C30.6688 1.56637 29.3014 1 27.8757 1C26.45 1 25.0827 1.56637 24.0745 2.57451C23.0664 3.58265 22.5 4.94999 22.5 6.37572C22.5 4.94999 21.9336 3.58265 20.9255 2.57451C19.9173 1.56637 18.55 1 17.1243 1C15.6986 1 14.3312 1.56637 13.3231 2.57451C12.3149 3.58265 11.7486 4.94999 11.7486 6.37572C10.6049 6.37562 9.48183 6.67955 8.49433 7.25638C7.50682 7.83321 6.69041 8.66219 6.12875 9.6584C5.56708 10.6546 5.28035 11.7822 5.29793 12.9257C5.31551 14.0692 5.63676 15.1875 6.22878 16.166C4.757 16.4504 3.43013 17.2383 2.476 18.3944C1.52187 19.5505 1 21.0028 1 22.5018C1 24.0008 1.52187 25.453 2.476 26.6092C3.43013 27.7653 4.757 28.5532 6.22878 28.8376C5.61915 29.8456 5.29715 31.0012 5.29771 32.1791Z" stroke="#00FF95" stroke-width="2" stroke-linecap="round" stroke-linejoin="round"/>
<path id="Vector_2" d="M12.8281 27.8793L16.789 15.9968C16.8884 15.7002 17.0785 15.4424 17.3323 15.2598C17.5862 15.0771 17.8911 14.9789 18.2038 14.9789C18.5166 14.9789 18.8215 15.0771 19.0753 15.2598C19.3292 15.4424 19.5193 15.7002 19.6187 15.9968L23.5796 27.8793M30.0304 14.9775V27.8793M14.9784 23.5787H21.4293" stroke="#00FF95" stroke-width="2" stroke-linecap="round" stroke-linejoin="round"/>
</g>
</svg>
