<svg width="39" height="39" viewBox="0 0 39 39" fill="none" xmlns="http://www.w3.org/2000/svg">
<path id="Vector" d="M13.1514 24.3375L13.15 24.3562V24.375C13.15 25.0182 12.8945 25.635 12.4397 26.0897C11.985 26.5445 11.3681 26.8 10.725 26.8C10.0819 26.8 9.46504 26.5445 9.01027 26.0897C8.55549 25.635 8.3 25.0182 8.3 24.375C8.3 23.7319 8.55549 23.115 9.01027 22.6603C9.46504 22.2055 10.0819 21.95 10.725 21.95H10.9321L11.0786 21.8036L16.9286 15.9536L17.075 15.8071V15.6C17.075 14.9569 17.3305 14.34 17.7853 13.8853C18.24 13.4305 18.8569 13.175 19.5 13.175C20.1432 13.175 20.76 13.4305 21.2147 13.8853C21.6695 14.34 21.925 14.9569 21.925 15.6V15.8046L22.0684 15.9505L25.4419 19.3825L25.5889 19.532H25.7985H26.1105H26.3176L26.4641 19.3856L33.5036 12.3461L33.6658 12.1838L33.6486 11.955C33.6431 11.8826 33.6431 11.8099 33.6486 11.7375L33.65 11.7188V11.7C33.65 11.2204 33.7922 10.7515 34.0587 10.3527C34.3251 9.95395 34.7039 9.64314 35.147 9.45959C35.5901 9.27605 36.0777 9.22803 36.5481 9.3216C37.0185 9.41516 37.4506 9.64612 37.7897 9.98527C38.1289 10.3244 38.3598 10.7565 38.4534 11.2269C38.547 11.6973 38.499 12.1849 38.3154 12.628C38.1319 13.0711 37.821 13.4499 37.4223 13.7163C37.0235 13.9828 36.5546 14.125 36.075 14.125H35.8667L35.72 14.2729L28.622 21.4294L28.477 21.5756V21.7815V21.9375C28.477 22.5807 28.2215 23.1975 27.7667 23.6522C27.312 24.107 26.6952 24.3625 26.052 24.3625C25.4088 24.3625 24.792 24.107 24.3373 23.6522C23.8825 23.1975 23.627 22.5807 23.627 21.9375V21.7815V21.5744L23.4806 21.4279L20.3411 18.2884L20.1946 18.142H19.9875H19.0905H18.8834L18.7369 18.2884L13.2964 23.7289L13.1342 23.8912L13.1514 24.12C13.1569 24.1924 13.1569 24.2651 13.1514 24.3375ZM3.4 35.1V35.6H3.9H37.05C37.4346 35.6 37.8034 35.7528 38.0753 36.0247C38.3472 36.2966 38.5 36.6654 38.5 37.05C38.5 37.4346 38.3472 37.8034 38.0753 38.0753C37.8034 38.3472 37.4346 38.5 37.05 38.5H1.95C1.56544 38.5 1.19662 38.3472 0.924695 38.0753C0.652768 37.8034 0.5 37.4346 0.5 37.05V1.95C0.5 1.56544 0.652767 1.19662 0.924695 0.924695C1.19662 0.652767 1.56544 0.5 1.95 0.5C2.33456 0.5 2.70338 0.652767 2.97531 0.924695C3.24723 1.19662 3.4 1.56544 3.4 1.95V35.1Z" fill="#00FF95" stroke="#030C19"/>
</svg>
