<svg width="28" height="28" viewBox="0 0 28 28" fill="none" xmlns="http://www.w3.org/2000/svg">
<path id="Vector" d="M2.67 26L9.06 14L16.36 20.49C16.5886 20.6931 16.8607 20.841 17.1554 20.9225C17.4501 21.004 17.7596 21.0168 18.06 20.96C18.3632 20.9032 18.6491 20.7771 18.8954 20.5915C19.1418 20.4059 19.3418 20.1658 19.48 19.89L25 8.9L23.18 8L17.69 19L10.39 12.51C10.1672 12.3028 9.90008 12.1492 9.60895 12.0608C9.31783 11.9724 9.01038 11.9516 8.71 12C8.41336 12.0492 8.13164 12.1647 7.88579 12.3378C7.63994 12.511 7.43629 12.7373 7.29 13L2 23V0H0V26C0 26.5304 0.210714 27.0391 0.585786 27.4142C0.960859 27.7893 1.46957 28 2 28H28V26H2.67Z" fill="white"/>
</svg>
