<svg width="67" height="67" viewBox="0 0 67 67" fill="none" xmlns="http://www.w3.org/2000/svg">
<path id="Vector" d="M58.2605 30.8729L58.2601 30.8732L49.682 37.8252L49.2279 38.1933L48.9347 37.6875C48.0031 36.0806 46.2648 34.9973 44.2717 34.9973H35.72H35.6317L35.5487 34.967C31.8031 33.6015 27.6396 33.3647 24.985 33.3778L24.9845 33.3778C22.5766 33.3871 20.3787 34.3387 18.6291 35.7371L18.6291 35.7371L13.0563 40.1908L12.7928 40.4014L12.4988 40.2358C12.2008 40.068 11.8642 39.9808 11.5222 39.9826C11.1802 39.9844 10.8446 40.0753 10.5484 40.2463L10.5483 40.2464L2.06593 45.141C1.84198 45.2704 1.64571 45.4426 1.48835 45.6479L1.09175 45.3438L1.48835 45.6479C1.33098 45.8531 1.21561 46.0874 1.14881 46.3373C1.08202 46.5871 1.06512 46.8477 1.09907 47.1041C1.13302 47.3605 1.21716 47.6077 1.34668 47.8316L1.34696 47.8321L11.2153 64.9321C11.2153 64.9322 11.2153 64.9322 11.2154 64.9323C11.3447 65.1562 11.5169 65.3524 11.7221 65.5097C11.9274 65.667 12.1617 65.7824 12.4115 65.8492C12.6614 65.916 12.922 65.9329 13.1784 65.8989C13.4348 65.865 13.682 65.7809 13.9059 65.6513L13.9063 65.6511L22.3856 60.7564L22.3858 60.7563C22.7748 60.5319 23.0754 60.1813 23.2378 59.7625C23.4001 59.3438 23.4144 58.8821 23.2783 58.4542L23.1808 58.1476L23.4193 57.9319L25.1473 56.3684C25.1474 56.3684 25.1474 56.3683 25.1474 56.3683C25.693 55.8745 26.4025 55.6008 27.1384 55.6005H27.1386H47.4612C47.4613 55.6005 47.4613 55.6005 47.4614 55.6005C48.3622 55.6003 49.2514 55.3978 50.0635 55.0081C50.8756 54.6184 51.5897 54.0513 52.1534 53.3488L58.2605 30.8729ZM58.2605 30.8729C59.1599 30.1423 60.2977 29.7703 61.455 29.8282C62.6122 29.8862 63.7071 30.3701 64.529 31.1868C65.3509 32.0035 65.8417 33.0954 65.9069 34.2522C65.9722 35.409 65.6073 36.5492 64.8825 37.4531L64.8823 37.4534L52.1537 53.3485L58.2605 30.8729ZM43.9277 3.24193L44.3899 4.3674L44.8527 3.24217L45.595 1.43711L45.6383 1.45678C47.3301 2.28567 48.9001 3.34311 50.3041 4.59942C52.8537 6.89891 55.5493 10.5856 55.5493 15.827C55.5493 22.2369 50.6817 27.6773 44.3902 27.6773C38.0954 27.6773 33.2279 22.2368 33.2279 15.827C33.2279 10.5821 35.9237 6.89859 38.4735 4.59907C39.8764 3.34315 41.4451 2.28583 43.1357 1.45675L43.1853 1.43418L43.9277 3.24193ZM47.6672 7.52544L47.6668 7.52513C46.6443 6.60791 45.6201 5.93315 44.8467 5.48879L44.8467 5.48875L44.8404 5.48525L44.6331 5.37004L44.3902 5.23514L44.1474 5.37004C43.0596 5.9744 42.0416 6.69665 41.1119 7.52375L41.1097 7.52571C39.0665 9.36494 37.1654 12.0672 37.1654 15.827C37.1654 19.2544 39.1035 22.0289 41.721 23.1745L42.4215 23.481V22.7164V14.0988C42.4215 13.5767 42.6289 13.0759 42.9981 12.7067C43.3673 12.3375 43.8681 12.1301 44.3902 12.1301C44.9124 12.1301 45.4131 12.3375 45.7823 12.7067C46.1516 13.0759 46.359 13.5767 46.359 14.0988V22.7164V23.481L47.0595 23.1745C49.6774 22.0287 51.6118 19.2506 51.6118 15.827C51.6118 12.0675 49.7142 9.36507 47.6672 7.52544ZM22.5062 53.4502L22.507 53.4494C23.777 52.2997 25.4289 51.663 27.1419 51.663H47.4614H47.4623C47.7725 51.6624 48.0786 51.5925 48.3583 51.4582C48.638 51.324 48.8841 51.129 49.0786 50.8873L49.0794 50.8863L61.8083 34.9909L61.8084 34.9909L61.8131 34.9848C61.9264 34.8387 61.9823 34.6562 61.9703 34.4717C61.9583 34.2873 61.8791 34.1136 61.7478 33.9834L61.3959 34.3386L61.7478 33.9834C61.6165 33.8533 61.4421 33.7757 61.2575 33.7654C61.0729 33.7551 60.8909 33.8126 60.7459 33.9273L60.7458 33.9273L60.741 33.9311L48.0616 44.211L48.0435 44.2256L48.027 44.2418C47.0236 45.2225 45.6756 45.7705 44.2725 45.7683H44.2717H35.269C34.7469 45.7683 34.2461 45.5609 33.8769 45.1917C33.5077 44.8224 33.3003 44.3217 33.3003 43.7995C33.3003 43.2774 33.5077 42.7766 33.8769 42.4074C34.2461 42.0382 34.7469 41.8308 35.269 41.8308H44.2717C44.4995 41.8308 44.7191 41.7813 44.9233 41.6792L44.9806 41.6506L45.0289 41.6083L45.1021 41.5443L45.3364 41.3517L45.3793 41.3165L45.4134 41.2727C45.58 41.0589 45.6832 40.8025 45.7113 40.5329C45.7394 40.2633 45.6913 39.9912 45.5723 39.7476L45.123 39.9669L45.5723 39.7476C45.4534 39.504 45.2685 39.2986 45.0386 39.1549L44.7736 39.5789L45.0386 39.1549C44.8087 39.0112 44.5431 38.935 44.2721 38.9348H44.2717H35.4435C35.069 38.9348 34.7261 38.8714 34.4103 38.7483L34.407 38.747C31.2726 37.5522 27.5555 37.3053 25.0037 37.3153L25.0029 37.3153C23.6398 37.3226 22.2794 37.8615 21.0855 38.8173L15.2001 43.5243L14.8645 43.7927L15.0795 44.1648L20.8399 54.1386L21.1488 54.6734L21.6076 54.2599L22.5062 53.4502ZM6.17422 47.3198L5.74116 47.5697L5.9911 48.0028L13.3908 60.8238L13.6408 61.257L14.0738 61.0069L18.2806 58.5776L18.7136 58.3276L18.4635 57.8946L11.0606 45.0768L10.8106 44.644L10.3777 44.8938L6.17422 47.3198Z" fill="white" stroke="white"/>
</svg>
