<svg width="59" height="33" viewBox="0 0 59 33" fill="none" xmlns="http://www.w3.org/2000/svg">
<path id="Vector" d="M16.5455 32V29.4167C16.5455 25.991 17.9103 22.7055 20.3398 20.2832C22.7692 17.8609 26.0642 16.5 29.5 16.5M29.5 16.5C32.9358 16.5 36.2308 17.8609 38.6602 20.2832C41.0897 22.7055 42.4545 25.991 42.4545 29.4167V32M29.5 16.5C31.5615 16.5 33.5385 15.6835 34.9961 14.2301C36.4538 12.7767 37.2727 10.8054 37.2727 8.75C37.2727 6.69457 36.4538 4.72333 34.9961 3.26992C33.5385 1.81652 31.5615 1 29.5 1C27.4385 1 25.4615 1.81652 24.0039 3.26992C22.5462 4.72333 21.7273 6.69457 21.7273 8.75C21.7273 10.8054 22.5462 12.7767 24.0039 14.2301C25.4615 15.6835 27.4385 16.5 29.5 16.5ZM1 32V29.4167C1 27.3612 1.81891 25.39 3.27658 23.9366C4.73425 22.4832 6.71127 21.6667 8.77273 21.6667M8.77273 21.6667C10.147 21.6667 11.465 21.1223 12.4368 20.1534C13.4086 19.1844 13.9545 17.8703 13.9545 16.5C13.9545 15.1297 13.4086 13.8156 12.4368 12.8466C11.465 11.8777 10.147 11.3333 8.77273 11.3333C7.39842 11.3333 6.08041 11.8777 5.10863 12.8466C4.13685 13.8156 3.59091 15.1297 3.59091 16.5C3.59091 17.8703 4.13685 19.1844 5.10863 20.1534C6.08041 21.1223 7.39842 21.6667 8.77273 21.6667ZM58 32V29.4167C58 27.3612 57.1811 25.39 55.7234 23.9366C54.2658 22.4832 52.2887 21.6667 50.2273 21.6667M50.2273 21.6667C51.6016 21.6667 52.9196 21.1223 53.8914 20.1534C54.8631 19.1844 55.4091 17.8703 55.4091 16.5C55.4091 15.1297 54.8631 13.8156 53.8914 12.8466C52.9196 11.8777 51.6016 11.3333 50.2273 11.3333C48.853 11.3333 47.535 11.8777 46.5632 12.8466C45.5914 13.8156 45.0455 15.1297 45.0455 16.5C45.0455 17.8703 45.5914 19.1844 46.5632 20.1534C47.535 21.1223 48.853 21.6667 50.2273 21.6667Z" stroke="#00FF95" stroke-width="2" stroke-linecap="round" stroke-linejoin="round"/>
</svg>
