<svg width="44" height="39" viewBox="0 0 44 39" fill="none" xmlns="http://www.w3.org/2000/svg">
<path id="Vector" d="M6.6 10.8333C6.6044 9.93489 6.28394 9.16789 5.6386 8.53233C4.99327 7.89678 4.21374 7.58044 3.3 7.58333C2.38627 7.58622 1.60747 7.90255 0.963604 8.53233C0.319738 9.16211 -0.00146167 9.92911 5e-06 10.8333C0.00147167 11.7376 0.322671 12.5053 0.963604 13.1365C1.60454 13.7677 2.38334 14.0833 3.3 14.0833L6.6 10.8333ZM6.6 10.8333C6.6 11.0861 6.57213 11.3208 6.5164 11.5375C6.46067 11.7542 6.39687 11.9528 6.325 12.1333L6.6 10.8333ZM35.2032 38.3H35.2H8.8C8.35 38.3 8.008 38.1571 7.72565 37.8781C7.44245 37.5982 7.30104 37.2648 7.3 36.8316C7.29897 36.4011 7.43923 36.0696 7.72392 35.7902C8.01056 35.5089 8.35389 35.3666 8.8 35.3666H35.2C35.65 35.3666 35.9932 35.5095 36.2774 35.7894C36.5609 36.0686 36.701 36.4003 36.7 36.8316C36.6989 37.2649 36.5575 37.5995 36.2735 37.8811C35.9918 38.1604 35.6514 38.3021 35.2032 38.3ZM4.48622 13.9186L4.39196 13.3292H3.795C3.66352 13.3292 3.53288 13.3458 3.40704 13.3718C3.35543 13.3824 3.32555 13.3837 3.31352 13.3835L3.31352 13.3833H3.3C2.56323 13.3833 1.96201 13.1373 1.45479 12.6378C0.947941 12.1386 0.701169 11.5504 0.700004 10.8322C0.698842 10.1159 0.94473 9.52997 1.45307 9.03275C1.96459 8.53243 2.56773 8.28565 3.30222 8.28333C4.03321 8.28102 4.63489 8.5263 5.14742 9.03107C5.65955 9.53544 5.90348 10.1219 5.90001 10.8299H5.9V10.8333C5.9 11.0348 5.8778 11.2102 5.83847 11.3631C5.78905 11.5553 5.73404 11.7252 5.67463 11.8745L5.42509 12.5014L6.04243 12.7738L12.9174 15.8071L13.4289 16.0328L13.7621 15.5839L20.6371 6.32137L21.0614 5.74967L20.4826 5.33508C20.1714 5.11216 19.9094 4.81538 19.6992 4.43086C19.4995 4.06572 19.4 3.67583 19.4 3.25C19.4 2.53446 19.6462 1.94648 20.1548 1.44558C20.6637 0.944313 21.2648 0.698845 21.9989 0.700004C22.7343 0.701165 23.3374 0.947791 23.8485 1.44886C24.3574 1.9477 24.6023 2.53353 24.6 3.24773V3.25C24.6 3.67583 24.5004 4.06572 24.3008 4.43086C24.0906 4.81538 23.8286 5.11216 23.5174 5.33508L22.9386 5.74967L23.3629 6.32137L30.2379 15.5839L30.5711 16.0328L31.0826 15.8071L37.9576 12.7738L38.5792 12.4995L38.3235 11.8699C38.2635 11.7222 38.2084 11.5538 38.1593 11.3631C38.1204 11.2117 38.0988 11.0376 38.1 10.8374V10.8333C38.1 10.1178 38.3462 9.52981 38.8548 9.0289C39.3637 8.52764 39.9648 8.28217 40.6989 8.28333C41.4343 8.28449 42.0374 8.53112 42.5485 9.03219C43.0574 9.53102 43.3023 10.1169 43.3 10.8311C43.2977 11.5489 43.051 12.1384 42.5457 12.6394C42.0427 13.1382 41.4423 13.3845 40.7011 13.3833H40.7C40.6803 13.3833 40.6431 13.3808 40.5846 13.3697C40.4637 13.3466 40.3407 13.3317 40.2185 13.3293L39.6099 13.3175L39.5138 13.9186L37.3146 27.6717C37.1595 28.5518 36.7425 29.2695 36.0458 29.8495C35.3463 30.4317 34.5599 30.7166 33.66 30.7166H10.34C9.44182 30.7166 8.65612 30.4319 7.95643 29.8495C7.25958 29.2694 6.84182 28.5515 6.6853 27.6712L4.48622 13.9186ZM9.64859 27.1926L9.74197 27.7833H10.34H33.66H34.258L34.3514 27.1926L35.7814 18.1468L35.9793 16.8952L34.8144 17.394L32.2908 18.4747C32.2897 18.4751 32.2887 18.4755 32.2877 18.476C31.4738 18.8143 30.6583 18.8738 29.8182 18.6592C28.9863 18.4469 28.3156 17.9986 27.7866 17.2946C27.786 17.2939 27.7854 17.2931 27.7849 17.2923L22.5637 10.2016L22 9.43611L21.4363 10.2016L16.2151 17.2923C16.2145 17.2931 16.2139 17.2939 16.2133 17.2948C15.6843 17.9986 15.0136 18.4469 14.1818 18.6592C13.3416 18.8738 12.5261 18.8143 11.7123 18.4759L9.18554 17.394L8.02074 16.8952L8.21859 18.1468L9.64859 27.1926Z" fill="#00FF95" stroke="#030C19" stroke-width="1.4"/>
</svg>
