<svg width="30" height="33" viewBox="0 0 30 33" fill="none" xmlns="http://www.w3.org/2000/svg">
<path id="Vector" d="M2.14286 30.8551H10.0543V19.9652C10.0543 19.4747 10.2207 19.0636 10.5536 18.7318C10.885 18.3986 11.2957 18.232 11.7857 18.232H18.2143C18.7043 18.232 19.1157 18.3986 19.4486 18.7318C19.78 19.0636 19.9457 19.4747 19.9457 19.9652V30.8551H27.8571V12.2112C27.8571 11.991 27.8093 11.7908 27.7136 11.6106C27.6179 11.4304 27.4871 11.2731 27.3214 11.1387L15.7843 2.43451C15.5643 2.2429 15.3029 2.14709 15 2.14709C14.6971 2.14709 14.4364 2.2429 14.2179 2.43451L2.67857 11.1387C2.51429 11.276 2.38357 11.4333 2.28643 11.6106C2.18929 11.7879 2.14143 11.9881 2.14286 12.2112V30.8551ZM0 30.8551V12.2112C0 11.6621 0.122857 11.1423 0.368571 10.6518C0.614286 10.1613 0.952857 9.75736 1.38429 9.43991L12.9236 0.692819C13.5279 0.23094 14.2179 0 14.9936 0C15.7693 0 16.4636 0.23094 17.0764 0.692819L28.6157 9.43777C29.0486 9.75522 29.3871 10.1599 29.6314 10.6518C29.8771 11.1423 30 11.6621 30 12.2112V30.8551C30 31.4299 29.7864 31.9311 29.3593 32.3587C28.9321 32.7862 28.4314 33 27.8571 33H19.5343C19.0429 33 18.6314 32.8341 18.3 32.5024C17.9686 32.1692 17.8029 31.7574 17.8029 31.2669V20.3791H12.1971V31.2669C12.1971 31.7588 12.0314 32.1706 11.7 32.5024C11.3686 32.8341 10.9579 33 10.4679 33H2.14286C1.56857 33 1.06786 32.7862 0.640714 32.3587C0.213571 31.9311 0 31.4299 0 30.8551Z" fill="white"/>
</svg>
